# xmcd
#
# Track frame offsets: 
#        150
#        10702
#        21302
#        33708
#        38752
#        49662
#        61269
#        71539
#        81648
#        84906
#        99005
#        110090
#        121139
#        130517
#        143844
#        152450
#        176617
#        188546
#        201743
#        211208
#        221967
#        227445
#        239031
#        251276
#        265125
#        289184
#        299347
#        309878
#        319635
#
# Disc length: 4387 seconds
#
# Revision: 0
# Processed by: cddbd v1.5.2PL0 Copyright (c) Steve Scherf et al.
# Submitted via: ExactAudioCopy v0.99pb5
#
DISCID=9811211d
DTITLE=Jan and Dean  - Collector's Series - Disc 4-Liberty Years 1964
DYEAR=1900
DGENRE=
TTITLE0=Ride the Wild Surf (stereo backing track)
TTITLE1=Ride the Wild Surf (mono acetate)
TTITLE2=Catch a Wave (early track acetate)
TTITLE3=Sidewalk Spinout (skateboard effects)
TTITLE4=Sidewalk Surfin' (stereo backing track)
TTITLE5=Sidewalk Surfin' (alternate stereo version)
TTITLE6=Tell 'Em I'm Surfin' (stereo take 1A)
TTITLE7=Tell 'Em I'm Surfin' (stereo take 2A)
TTITLE8=Tell 'Em I'm Surfin' (stereo take 3A)
TTITLE9=Waimea Bay (track only)
TTITLE10=The Restless Surfer (track only)
TTITLE11=Jcþ and Dean - Surfin' Wild (backing track)
TTITLE12=Down at Malibu Beach (lead vocal)
TTITLE13=A Surfer's Dream (track only)
TTITLE14=The Submarine Races (track only)
TTITLE15=Skateboarding - Part 2 - (takes 1A and 2A)
TTITLE16=Brother Surfer - (Take 1)
TTITLE17=Brother Surfer - (Take 8)
TTITLE18=Little Old Lady (take 10)
TTITLE19=Little Old Lady (take 11)
TTITLE20=Little Old Lady (intercut 1, take 4)
TTITLE21=Little Olp Lady(Backing track)
TTITLE22=Little Old Lady (backing track)
TTITLE23=Little Old Lady (take 7d or take 16c ?)
TTITLE24=Memphis (takes 1a - 5a)
TTITLE25=When It's Over (track only)
TTITLE26=Horace, the Swingin' School Bus Driver (backing track)
TTITLE27=Summer Means Fun (track only)
TTITLE28=Summer Means Fun (backing track)
EXTD=
EXTT0=
EXTT1=
EXTT2=
EXTT3=
EXTT4=
EXTT5=
EXTT6=
EXTT7=
EXTT8=
EXTT9=
EXTT10=
EXTT11=
EXTT12=
EXTT13=
EXTT14=
EXTT15=
EXTT16=
EXTT17=
EXTT18=
EXTT19=
EXTT20=
EXTT21=
EXTT22=
EXTT23=
EXTT24=
EXTT25=
EXTT26=
EXTT27=
EXTT28=
PLAYORDER=
